# Blender 3.6.0
# www.blender.org
mtllib testimage.mtl
o practice
v -50.000000 0.750000 36.179329
v -33.529160 0.750000 50.000000
v -33.529160 -0.750000 50.000000
v -50.000000 -0.750000 36.179329
v 50.000000 0.750000 -35.761765
v 33.031525 0.750000 -50.000000
v 50.000000 -0.750000 -35.761765
v 33.031525 -0.750000 -50.000000
v -33.830433 0.750000 -50.000000
v -50.000000 0.750000 -36.432114
v -50.000000 -0.750000 -36.432114
v -33.830433 -0.750000 -50.000000
v 32.821953 0.750000 50.000000
v 50.000000 0.750000 35.585899
v 50.000000 -0.750000 35.585899
v 32.821953 -0.750000 50.000000
vn -0.0000 1.0000 -0.0000
vn 1.0000 -0.0000 -0.0000
vn -0.0000 -0.0000 1.0000
vn -0.0000 -1.0000 -0.0000
vn -0.0000 -0.0000 -1.0000
vn -1.0000 -0.0000 -0.0000
vn -0.6428 -0.0000 0.7660
vn 0.6428 -0.0000 -0.7660
vn -0.6428 -0.0000 -0.7660
vn 0.6428 -0.0000 0.7660
vt 0.968282 0.165542
vt 0.968283 0.834421
vt 0.810570 0.967903
vt 0.189125 0.967903
vt 0.038838 0.840705
vt 0.038838 0.159979
vt 0.191925 0.030411
vt 0.808622 0.030411
vt 1.763756 1.905395
vt 1.100619 1.905395
vt 1.100619 0.967903
vt 1.763756 0.967903
vt -1.660391 0.967903
vt -1.043694 0.967903
vt -1.043694 1.905395
vt -1.660391 1.905395
vt 0.807557 0.036181
vt 0.958641 0.165101
vt 0.958641 0.842424
vt 0.810320 0.968986
vt 0.197008 0.968986
vt 0.041359 0.836171
vt 0.041359 0.170637
vt 0.198930 0.036181
vt 0.810570 1.905395
vt 0.189125 1.905395
vt -0.087268 1.905395
vt -0.762151 1.905395
vt -0.762151 0.967903
vt -0.087268 0.967903
vt 0.425000 0.993510
vt 0.575000 0.993510
vt 0.575000 0.769540
vt 0.425000 0.769540
vt 0.575000 0.489769
vt 0.575000 0.259032
vt 0.425000 0.259032
vt 0.425000 0.489769
vt 0.425000 0.010231
vt 0.425000 0.230104
vt 0.575000 0.230104
vt 0.575000 0.010231
vt 0.575000 0.512315
vt 0.425000 0.512315
vt 0.425000 0.745902
vt 0.575000 0.745902
s 0
usemtl front
f 14/1/1 5/2/1 6/3/1 9/4/1 10/5/1 1/6/1 2/7/1 13/8/1
f 15/9/2 7/10/2 5/11/2 14/12/2
f 13/13/3 2/14/3 3/15/3 16/16/3
f 9/4/5 6/3/5 8/25/5 12/26/5
f 11/27/6 4/28/6 1/29/6 10/30/6
f 3/31/7 2/32/7 1/33/7 4/34/7
f 6/35/8 5/36/8 7/37/8 8/38/8
f 12/39/9 11/40/9 10/41/9 9/42/9
f 13/43/10 16/44/10 15/45/10 14/46/10
usemtl back
f 3/17/4 4/18/4 11/19/4 12/20/4 8/21/4 7/22/4 15/23/4 16/24/4
